<svg xmlns="http://www.w3.org/2000/svg" width="327.1" height="121.9" viewBox="0 0 327.1 121.9" role="img" aria-label="박성현"><g transform="matrix(0.058594,0,0,-0.058594,8.000,103.508)" fill="#2F3437"><g transform="translate(0.0,0)"><path d="M1486 1630H1264V542H1486V996H1738V1178H1486ZM1486 458H282V280H1264V-178H1486ZM342 1516H122V648H984V1516H764V1260H342ZM342 824V1086H764V824Z"/></g><g transform="translate(1770.0,0)"><path d="M722 1370V1532H498V1360C498 1100 348 858 48 760L166 580C385 656 536 811 616 1008C693 836 831 705 1028 636L1148 810C864 900 720 1124 722 1370ZM1574 1630H1352V1280H992V1098H1352V566H1574ZM962 518C580 518 346 390 348 170C346 -50 580 -176 962 -176C1346 -176 1580 -50 1580 170C1580 390 1346 518 962 518ZM962 346C1214 346 1358 284 1358 170C1358 60 1214 -2 962 -2C710 -2 568 60 568 170C568 284 710 346 962 346Z"/></g><g transform="translate(3540.0,0)"><path d="M1574 1628H1352V1168H1084V988H1352V786H1084V608H1352V252H1574ZM1074 1428H690V1630H468V1428H64V1250H1074ZM576 1176C332 1176 156 1032 158 824C156 616 332 472 576 472C822 472 998 616 1000 824C998 1032 822 1176 576 1176ZM576 1002C700 1000 790 934 790 824C790 710 700 644 576 644C452 644 364 710 366 824C364 934 452 1000 576 1002ZM1614 38H608V370H382V-142H1614Z"/></g></g></svg>
